HIERARCHY
ROOT Hips
{
  OFFSET -331.093 83.8371 -317.828
  CHANNELS 6 Xposition Yposition Zposition Zrotation Xrotation Yrotation
  JOINT LeftUpLeg
  {
    OFFSET 8.64259 1.95398 -2.38835
    CHANNELS 3 Zrotation Xrotation Yrotation
    JOINT LeftLeg
    {
      OFFSET 43.7702 0 0
      CHANNELS 3 Zrotation Xrotation Yrotation
      JOINT LeftFoot
      {
        OFFSET 40.6238 0 0
        CHANNELS 3 Zrotation Xrotation Yrotation
        JOINT LeftToeBase
        {
          OFFSET 12.7242 0 0
          CHANNELS 3 Zrotation Xrotation Yrotation
          End Site
          {
            OFFSET 0 0 0
          }
        }
      }
    }
  }
  JOINT RightUpLeg
  {
    OFFSET -8.2249 1.95398 -2.59336
    CHANNELS 3 Zrotation Xrotation Yrotation
    JOINT RightLeg
    {
      OFFSET 43.5653 0 0
      CHANNELS 3 Zrotation Xrotation Yrotation
      JOINT RightFoot
      {
        OFFSET 40.6238 0 0
        CHANNELS 3 Zrotation Xrotation Yrotation
        JOINT RightToeBase
        {
          OFFSET 12.7242 0 0
          CHANNELS 3 Zrotation Xrotation Yrotation
          End Site
          {
            OFFSET 0 0 0
          }
        }
      }
    }
  }
  JOINT Spine
  {
    OFFSET 0.165834 0.87714 6.61349
    CHANNELS 3 Zrotation Xrotation Yrotation
    JOINT Spine1
    {
      OFFSET 7.38963 1.71661e-005 0
      CHANNELS 3 Zrotation Xrotation Yrotation
      JOINT Spine2
      {
        OFFSET 11.9445 1.14441e-005 0
        CHANNELS 3 Zrotation Xrotation Yrotation
        JOINT Spine3
        {
          OFFSET 14.7254 4.19617e-005 0
          CHANNELS 3 Zrotation Xrotation Yrotation
          JOINT Spine4
          {
            OFFSET 10.9679 0 0
            CHANNELS 3 Zrotation Xrotation Yrotation
            JOINT RightShoulder
            {
              OFFSET 2.46616 -1.6653 3.69651
              CHANNELS 3 Zrotation Xrotation Yrotation
              JOINT RightArm
              {
                OFFSET 13.0012 0 0
                CHANNELS 3 Zrotation Xrotation Yrotation
                JOINT RightForeArm
                {
                  OFFSET 28.7848 1.62311e-005 0
                  CHANNELS 3 Zrotation Xrotation Yrotation
                  JOINT RightHand
                  {
                    OFFSET 26.5688 1.62095e-005 0
                    CHANNELS 3 Zrotation Xrotation Yrotation
                    End Site
                    {
                      OFFSET 0 0 0
                    }
                  }
                }
              }
            }
            JOINT LeftShoulder
            {
              OFFSET 2.38034 -1.29275 -3.7523
              CHANNELS 3 Zrotation Xrotation Yrotation
              JOINT LeftArm
              {
                OFFSET 16.3182 6.07031e-005 0
                CHANNELS 3 Zrotation Xrotation Yrotation
                JOINT LeftForeArm
                {
                  OFFSET 27.0901 0 0
                  CHANNELS 3 Zrotation Xrotation Yrotation
                  JOINT LeftHand
                  {
                    OFFSET 24.5451 1.51738e-005 0
                    CHANNELS 3 Zrotation Xrotation Yrotation
                    End Site
                    {
                      OFFSET 0 0 0
                    }
                  }
                }
              }
            }
            JOINT Neck
            {
              OFFSET 5.0226 -0.0266342 0
              CHANNELS 3 Zrotation Xrotation Yrotation
              JOINT Head
              {
                OFFSET 6.69364 2.86102e-005 0
                CHANNELS 3 Zrotation Xrotation Yrotation
                End Site
                {
                  OFFSET 0 0 0
                }
              }
            }
          }
        }
      }
    }
  }
}
MOTION
Frames:	13
Frame Time:	0.0416667
35.9833 99.338 -275.666 -25.839 -86.9252 -26.339 -178.032 10.1969 86.2578 -18.2669 13.0562 -0.0688135 65.6332 6.63441 6.01462 35.1163 11.4148 18.9718 171.637 19.0259 92.8827 -33.9932 5.97533 -0.128606 52.3244 9.63161 7.82509 44.2613 5.46234 22.0421 -0.0798318 7.00275 -90.0549 12.8683 -0.184773 -0.0875182 1.19737 -0.188452 -0.0793082 -21.3378 -0.149933 -0.139011 -1.32519 -0.149935 -0.139016 89.8072 -40.3534 -103.251 33.0878 -17.0125 0.287443 -10.3925 -16.5589 -40.2441 -5.31255 -0.416897 2.36724 -99.4368 -52.0459 66.0796 -22.2204 10.4836 1.45854 6.15803 16.5486 -33.6359 12.2358 0.899018 3.33886 4.66207 2.01849 4.27042 -7.26134 1.23954 -0.411338 
36.3535 99.0275 -274.724 -11.5134 -86.7118 -12.2007 -178.429 10.6145 85.5718 -19.4393 14.0053 0.0891722 65.7201 9.34928 10.2722 30.6873 3.70411 8.90512 172.526 19.0043 92.9269 -35.0943 4.71039 -1.16984 54.4939 8.90963 6.72706 52.3215 4.95898 15.9666 -0.042558 7.03905 -90.0286 12.7957 -0.0981724 -0.0454591 1.12476 -0.100079 -0.0411034 -21.4104 -0.0799708 -0.0728614 -1.39775 -0.0799768 -0.072866 90.2454 -40.3559 -102.5 33.1652 -16.5972 0.695996 -9.71045 -15.0389 -40.5941 -5.4967 -0.519971 5.64743 -99.9365 -51.6362 65.2295 -21.9813 11.2455 1.24564 5.74329 15.3711 -33.9904 12.3904 0.952163 3.66823 3.88394 1.6051 3.34801 -6.17148 0.997242 0.146161 
36.7476 98.8264 -273.456 -0.201881 -86.8396 -0.496127 -178.139 10.2263 85.8161 -20.2827 13.4103 0.0458591 66.8408 9.76712 9.32933 30.2561 2.62798 6.20487 173.045 16.3256 93.433 -33.7112 3.6496 -1.4467 59.5702 5.69566 3.69356 55.7945 3.41736 10.6479 -0.0731713 7.10203 -90.0615 12.67 -0.174628 -0.10258 0.999028 -0.178979 -0.094802 -21.5362 -0.13573 -0.150321 -1.52354 -0.135731 -0.15033 90.0221 -40.5247 -102.834 33.1692 -16.3371 1.51649 -9.81051 -15.0714 -40.3882 -6.44571 -0.572233 4.77686 -99.3388 -51.3143 65.9642 -22.4205 11.8664 1.09257 6.21925 15.526 -35.0409 12.2364 0.974691 3.92711 3.21986 1.46149 3.16445 -5.38057 0.905608 0.230163 
37.2522 98.1035 -272.324 -11.9138 -86.7314 -11.6425 -177.867 11.0783 86.0056 -23.6318 12.7433 0.0483071 68.6355 10.3744 8.68556 32.4093 3.95351 4.53121 175.054 15.6897 94.6366 -35.2906 -0.309536 -3.23845 64.3739 1.52343 0.54718 55.3251 -0.34446 0.28498 0.0305205 7.17447 -90.0923 12.5244 0.0167134 -0.186637 0.853454 0.00847511 -0.187195 -21.6816 0.072027 -0.172994 -1.66892 0.0720293 -0.172986 90.0571 -40.303 -102.838 33.6757 -16.346 2.53627 -9.75191 -14.8617 -40.9804 -6.63898 -0.582334 4.66942 -99.1682 -51.0255 66.1071 -21.9812 13.5089 0.415233 6.38962 15.167 -36.2892 12.2867 1.12826 5.09061 2.23641 1.4036 3.09113 -4.09262 0.894352 -0.0326595 
37.7768 97.246 -271.213 -29.2279 -86.6383 -30.3021 -177.96 11.1715 84.2613 -25.9876 10.8517 -0.207073 70.5361 11.0787 8.485 32.9739 3.01672 -0.392936 174.404 17.1725 93.1677 -38.1335 4.34307 -1.31198 68.7773 -3.8851 -2.19806 50.4519 0.815782 3.80988 0.0333429 7.30665 -89.8477 12.2603 0.138519 0.288513 0.589325 0.151086 0.282127 -21.9456 0.0453972 0.316803 -1.93293 0.0454025 0.316798 89.9785 -40.6769 -102.864 34.312 -16.3292 2.91785 -10.1392 -14.8789 -40.9411 -6.76478 -0.584989 4.48699 -98.6733 -50.4029 66.6005 -21.01 14.1005 -0.141876 7.1881 14.1304 -38.7004 11.3544 0.922907 4.03483 0.911854 1.77586 2.52611 -1.72955 1.3809 0.102579 
38.3386 96.8055 -269.551 -25.8315 -86.4894 -26.3325 -177.476 11.3077 84.5286 -28.0654 10.4359 -0.386914 71.8547 11.3777 8.28986 35.1456 4.00513 -2.52116 176.306 21.5317 93.7133 -44.1756 -0.0355423 -2.16709 69.8957 -4.71162 -2.62231 48.3739 -1.80085 -4.86193 -0.139083 7.39186 -89.9057 12.0908 -0.231796 0.214466 0.419817 -0.222137 0.224442 -22.1154 -0.285531 0.134888 -2.10273 -0.285548 0.134868 90.213 -40.649 -102.472 35.083 -16.5245 3.35831 -10.0455 -15.0669 -41.1884 -7.05854 -0.63781 5.12686 -99.1458 -50.8535 66.079 -18.7899 14.3525 -1.99193 6.8208 13.06 -39.2312 11.3399 0.867404 3.58094 0.179465 2.44745 3.2963 -0.691196 1.95599 0.423164 
38.8593 97.03 -266.95 0.000449515 -86.177 0.836313 -177.702 9.33502 85.4218 -26.2012 12.0639 0.301785 71.9994 12.1574 9.14248 34.6861 3.08006 -4.57905 177.244 24.3441 94.2085 -40.1571 -3.13026 -2.20906 68.727 -4.13729 -2.34462 46.6586 -3.27974 -10.5094 -0.430625 7.33317 -90.1105 12.2079 -0.908206 -0.119747 0.537323 -0.912607 -0.0796626 -22.0001 -0.830235 -0.387191 -1.9874 -0.830234 -0.387182 90.2583 -40.7891 -102.355 35.7434 -16.4661 5.73261 -9.74899 -14.4099 -40.8357 -7.29002 -0.603782 4.09956 -99.599 -50.827 65.4211 -17.9865 14.1728 -3.77178 6.66712 12.8241 -39.0388 11.1449 0.980428 4.64124 -0.672015 2.72015 2.88932 -0.759146 2.32303 1.97214 
39.0532 97.0284 -264.239 -15.5804 -86.1873 -14.6966 -176.942 6.30749 85.6517 -24.0285 12.012 -0.255846 72.4797 12.268 8.78401 35.0392 3.51645 -3.92368 178.367 26.7281 94.3284 -32.3662 -1.851 -2.43766 66.6042 -3.18866 -1.81516 42.9972 -2.77888 -10.2055 -0.502851 7.38523 -90.1418 12.1031 -1.06657 -0.165248 0.432573 -1.07281 -0.118144 -22.1055 -0.967594 -0.478176 -2.09288 -0.967604 -0.478198 90.1224 -41.0226 -102.52 36.015 -16.058 7.56265 -11.4057 -14.6055 -41.4517 -6.44963 -0.606941 5.93738 -98.9948 -50.1966 66.0656 -18.0377 14.0535 -5.20646 6.95638 11.8548 -40.3026 10.4454 0.835148 3.86029 0.0732362 3.12516 2.91418 -1.11164 2.69165 1.81931 
39.2139 96.5779 -261.089 -35.1422 -85.4449 -34.4812 -176.506 3.48191 85.3572 -22.4189 11.5741 -0.631973 72.4354 12.6487 9.99362 38.0193 5.33387 -4.8123 179.09 29.1136 94.2247 -24.6204 -3.72685 -2.15664 63.0251 -1.72637 -0.958096 39.1506 -1.84864 -7.87029 -0.500292 7.46085 -90.118 11.952 -1.05032 -0.121838 0.281477 -1.05467 -0.0755017 -22.2566 -0.965151 -0.431904 -2.24396 -0.965139 -0.431897 90.4594 -41.2356 -101.889 36.038 -15.3013 8.20908 -8.70963 -14.0861 -39.5426 -6.52138 -0.664615 7.01037 -98.9677 -49.8153 65.9697 -16.494 14.9068 -6.87113 7.1971 10.9161 -42.0242 11.2823 0.988984 4.62809 0.701988 2.9384 2.28623 -0.320665 2.60204 2.51876 
39.2555 95.7966 -257.567 -28.005 -85.2039 -27.6027 -176.344 1.55727 85.2001 -22.4051 11.998 -0.608222 73.5646 13.3761 9.85782 39.69 7.12737 -3.07976 178.969 31.0754 93.9533 -17.7739 -4.05342 -1.68164 61.0872 -1.0017 -0.503247 38.8737 -1.67249 -7.1532 -0.697432 7.50615 -90.0904 11.8623 -1.42936 -0.0273287 0.192104 -1.42918 0.0356177 -22.3489 -1.35506 -0.455728 -2.33623 -1.35505 -0.455724 90.1283 -42.2697 -102.161 35.015 -14.2094 8.22055 -8.10661 -14.201 -37.8871 -6.90765 -0.478916 1.9358 -98.5775 -49.3255 66.3636 -14.8323 15.2483 -8.84363 7.04092 10.5212 -42.2812 11.881 1.03029 4.56662 0.921409 3.10364 2.17355 0.70736 2.7902 2.20867 
39.1562 94.9107 -253.172 -23.045 -85.2074 -22.5933 -175.909 -0.218776 85.6346 -24.1383 13.8952 -0.571037 72.1813 12.935 11.2165 45.8369 11.4208 -3.62258 179.014 32.0079 94.1278 -14.7632 -2.95674 -1.39747 60.7745 -1.06418 -0.524503 39.0178 -1.77256 -7.56447 -0.842001 7.55559 -90.1539 11.763 -1.74687 -0.122494 0.0932224 -1.75057 -0.0454743 -22.4504 -1.62927 -0.641975 -2.43775 -1.62926 -0.641968 89.9941 -42.6048 -102.293 34.5425 -13.7072 8.44551 -9.02936 -15.0081 -37.7135 -6.09838 -0.532251 4.49645 -99.2361 -49.5647 65.4922 -13.7624 14.1884 -9.81209 6.49706 10.6776 -40.8663 12.4871 1.118 4.87376 0.372441 2.77257 2.31043 1.76223 2.48428 2.48734 
38.8767 93.9803 -247.644 -19.389 -86.0001 -18.8565 -175.514 -3.33329 86.3989 -25.8816 17.2556 -0.257553 70.0621 11.9341 11.7396 52.1656 17.1128 -1.9922 179.08 33.6022 94.3357 -22.528 -2.63346 -1.42169 61.1887 -0.864861 -0.453111 36.6991 -1.69191 -8.23023 -0.95239 7.65618 -90.2228 11.56 -1.99886 -0.238076 -0.109457 -2.0074 -0.149845 -22.6552 -1.83487 -0.828006 -2.64254 -1.83488 -0.828012 90.0513 -42.9504 -102.103 33.62 -14.3517 9.26031 -9.66208 -15.355 -39.3713 -5.22399 -0.471552 4.74883 -99.5225 -49.528 65.0635 -14.2825 13.0026 -10.2717 5.91811 12.1244 -37.7253 12.4854 1.0971 4.72339 0.320749 2.5537 2.17552 1.90582 2.30596 2.92615 
38.2734 93.4607 -241.453 -9.91225 -86.9079 -7.72413 -174.41 -6.07725 89.5836 -28.4484 21.439 0.481845 66.9421 10.1822 11.569 56.3064 22.2048 0.899515 178.607 34.3516 96.1873 -31.9239 -0.718582 -1.17448 62.5373 -0.969169 -0.611146 34.7529 -1.48546 -8.03867 -1.07254 7.70186 -90.5285 11.4628 -2.38079 -0.810745 -0.206172 -2.41415 -0.705134 -22.7528 -2.02704 -1.48899 -2.74016 -2.02704 -1.489 89.783 -42.6062 -102.643 32.9035 -14.6901 8.01894 -8.22844 -15.9412 -36.3221 -5.41046 -0.476526 4.40721 -100.358 -50.4275 64.1901 -15.6168 12.2833 -7.66877 5.34322 12.5669 -35.9633 13.7511 1.32965 5.6316 -0.131705 2.72098 2.83148 1.57383 2.39478 3.33018 
